<?xml version="1.0" standalone="no"?>
<!DOCTYPE svg PUBLIC "-//W3C//DTD SVG 20010904//EN"
 "http://www.w3.org/TR/2001/REC-SVG-20010904/DTD/svg10.dtd">
<svg version="1.0" xmlns="http://www.w3.org/2000/svg"
 width="229.000000pt" height="229.000000pt" viewBox="0 0 229.000000 229.000000"
 preserveAspectRatio="xMidYMid meet">

<g transform="translate(0.000000,229.000000) scale(0.100000,-0.100000)"
fill="#000000" stroke="none">
<path d="M723 2264 c-4 -11 49 -71 189 -211 185 -185 197 -195 233 -195 36 0
48 10 232 194 108 107 192 200 191 208 -9 44 -44 19 -228 -165 -162 -162 -190
-186 -206 -177 -11 6 -98 90 -194 186 -97 97 -183 176 -193 176 -10 0 -20 -7
-24 -16z"/>
<path d="M357 2173 c-4 -3 -7 -13 -7 -22 0 -18 702 -722 737 -740 30 -15 89
-14 121 3 15 8 186 174 381 369 355 356 379 385 327 395 -13 3 -118 -95 -377
-355 -302 -301 -364 -359 -390 -361 -30 -3 -55 20 -393 357 -199 199 -368 361
-377 361 -9 0 -19 -3 -22 -7z"/>
<path d="M117 1933 c-4 -3 -7 -13 -7 -22 0 -9 162 -178 360 -376 333 -334 360
-363 360 -395 1 -33 -22 -58 -360 -393 -244 -241 -360 -363 -358 -375 10 -50
41 -24 395 329 195 195 361 366 369 381 17 32 18 76 4 115 -13 35 -719 743
-741 743 -9 0 -19 -3 -22 -7z"/>
<path d="M1779 1583 c-390 -391 -393 -394 -370 -478 9 -34 68 -98 374 -403
273 -273 368 -361 380 -356 44 16 16 50 -344 411 -357 357 -362 362 -355 395
5 27 76 102 362 389 259 259 355 361 352 375 -10 52 -39 28 -399 -333z"/>
<path d="M17 1563 c-19 -19 8 -53 169 -213 96 -96 180 -183 186 -194 9 -16
-16 -45 -181 -211 -141 -141 -190 -196 -185 -208 3 -10 14 -17 23 -17 9 0 104
88 211 195 180 180 194 197 194 230 0 33 -14 50 -194 230 -107 107 -200 195
-206 195 -6 0 -14 -3 -17 -7z"/>
<path d="M2052 1367 c-173 -174 -192 -196 -192 -227 0 -30 18 -52 183 -218
100 -101 190 -188 201 -194 14 -7 22 -6 34 6 14 14 -2 33 -176 209 -106 107
-192 198 -192 202 0 5 86 95 191 201 110 110 188 197 185 203 -4 6 -15 11 -24
11 -10 0 -104 -87 -210 -193z"/>
<path d="M1090 874 c-52 -22 -740 -712 -740 -741 0 -61 42 -26 402 334 337
337 359 357 393 357 34 0 56 -20 393 -357 360 -360 402 -395 402 -334 0 16
-97 119 -352 374 -399 398 -409 405 -498 367z"/>
</g>
</svg>
